<svg xmlns="http://www.w3.org/2000/svg" width="40" height="51.853" viewBox="0 0 40 51.853">
  <path id="Icon_awesome-phone" data-name="Icon awesome-phone" d="M38.546,2.492,30.421.061a1.82,1.82,0,0,0-2.148,1.408l-3.75,11.343a2.916,2.916,0,0,0,.539,2.836L29.8,20.67C26.984,28.438,22.07,34.9,15.953,38.616l-3.875-6.137a1.613,1.613,0,0,0-2.187-.7l-8.75,4.861a2.7,2.7,0,0,0-1.094,2.8L1.922,49.968A2.054,2.054,0,0,0,3.75,51.852C23.757,51.852,40,30.838,40,4.861A2.381,2.381,0,0,0,38.546,2.492Z" transform="translate(0.001 0.001)" fill="#fff"/>
</svg>
